<svg width="10" height="10" viewBox="0 0 10 10" fill="none" xmlns="http://www.w3.org/2000/svg">
<path d="M5 0C2.2375 0 0 2.23875 0 5C0 7.20958 1.4325 9.08333 3.41875 9.74375C3.66875 9.79083 3.76042 9.63625 3.76042 9.50333C3.76042 9.38458 3.75625 9.07 3.75417 8.65333C2.36333 8.955 2.07 7.9825 2.07 7.9825C1.8425 7.40542 1.51375 7.25125 1.51375 7.25125C1.06083 6.94125 1.54875 6.9475 1.54875 6.9475C2.05083 6.9825 2.31458 7.4625 2.31458 7.4625C2.76042 8.22708 3.485 8.00625 3.77083 7.87833C3.81583 7.555 3.94458 7.33458 4.0875 7.20958C2.97708 7.08458 1.81 6.65458 1.81 4.73875C1.81 4.19292 2.00375 3.74708 2.32458 3.39708C2.26833 3.27083 2.09958 2.7625 2.36833 2.07375C2.36833 2.07375 2.78708 1.93958 3.74333 2.58625C4.14333 2.475 4.56833 2.42 4.99333 2.4175C5.41833 2.42 5.84333 2.475 6.24333 2.58625C7.19333 1.93958 7.61208 2.07375 7.61208 2.07375C7.88083 2.7625 7.71208 3.27083 7.66208 3.39708C7.98083 3.74708 8.17458 4.19292 8.17458 4.73875C8.17458 6.65958 7.00583 7.0825 5.89333 7.20542C6.06833 7.35542 6.23083 7.66208 6.23083 8.13042C6.23083 8.79958 6.22458 9.33708 6.22458 9.49958C6.22458 9.63083 6.31208 9.78708 6.56833 9.73708C8.56875 9.08125 10 7.20625 10 5C10 2.23875 7.76125 0 5 0Z" fill="#181717"/>
</svg>
