<svg width="10" height="10" viewBox="0 0 10 10" fill="none" xmlns="http://www.w3.org/2000/svg">
<g clip-path="url(#clip0_41_16)">
<path fill-rule="evenodd" clip-rule="evenodd" d="M1.88889 9H8.11111C8.60203 9 9 8.60203 9 8.11111V1.88889C9 1.39797 8.60203 1 8.11111 1H1.88889C1.39797 1 1 1.39797 1 1.88889V8.11111C1 8.60203 1.39797 9 1.88889 9Z" fill="#1C1B1F"/>
<path fill-rule="evenodd" clip-rule="evenodd" d="M7.88886 7.88892H6.70171V5.86694C6.70171 5.31256 6.49106 5.00276 6.05227 5.00276C5.57493 5.00276 5.32554 5.32516 5.32554 5.86694V7.88892H4.18145V4.03707H5.32554V4.55592C5.32554 4.55592 5.66953 3.91939 6.48692 3.91939C7.30394 3.91939 7.88886 4.41831 7.88886 5.45017V7.88892ZM2.81657 3.5327C2.42687 3.5327 2.11108 3.21444 2.11108 2.82192C2.11108 2.42941 2.42687 2.11115 2.81657 2.11115C3.20627 2.11115 3.52186 2.42941 3.52186 2.82192C3.52186 3.21444 3.20627 3.5327 2.81657 3.5327ZM2.22581 7.88892H3.4188V4.03707H2.22581V7.88892Z" fill="white"/>
</g>
<defs>
<clipPath id="clip0_41_16">
<rect width="8" height="8" fill="white" transform="translate(1 1)"/>
</clipPath>
</defs>
</svg>
