<svg width="10" height="10" viewBox="0 0 10 10" fill="none" xmlns="http://www.w3.org/2000/svg">
<mask id="mask0_41_23" style="mask-type:alpha" maskUnits="userSpaceOnUse" x="0" y="0" width="10" height="10">
<rect width="10" height="10" fill="#D9D9D9"/>
</mask>
<g mask="url(#mask0_41_23)">
<path d="M5.00008 5.00004C5.22925 5.00004 5.42543 4.91844 5.58862 4.75525C5.75182 4.59205 5.83341 4.39587 5.83341 4.16671C5.83341 3.93754 5.75182 3.74136 5.58862 3.57817C5.42543 3.41497 5.22925 3.33337 5.00008 3.33337C4.77091 3.33337 4.57473 3.41497 4.41154 3.57817C4.24835 3.74136 4.16675 3.93754 4.16675 4.16671C4.16675 4.39587 4.24835 4.59205 4.41154 4.75525C4.57473 4.91844 4.77091 5.00004 5.00008 5.00004ZM5.00008 9.16671C3.88203 8.21532 3.04696 7.33164 2.49487 6.51567C1.94279 5.69969 1.66675 4.94448 1.66675 4.25004C1.66675 3.20837 2.00182 2.37851 2.67196 1.76046C3.3421 1.1424 4.11814 0.833374 5.00008 0.833374C5.88203 0.833374 6.65807 1.1424 7.32821 1.76046C7.99835 2.37851 8.33341 3.20837 8.33341 4.25004C8.33341 4.94448 8.05737 5.69969 7.50529 6.51567C6.95321 7.33164 6.11814 8.21532 5.00008 9.16671Z" fill="#1C1B1F"/>
</g>
</svg>
