<svg width="10" height="10" viewBox="0 0 10 10" fill="none" xmlns="http://www.w3.org/2000/svg">
<mask id="mask0_41_11" style="mask-type:alpha" maskUnits="userSpaceOnUse" x="0" y="0" width="10" height="10">
<rect width="10" height="10" fill="#D9D9D9"/>
</mask>
<g mask="url(#mask0_41_11)">
<path d="M1.66659 8.33335C1.43742 8.33335 1.24124 8.25176 1.07804 8.08856C0.914849 7.92537 0.833252 7.72919 0.833252 7.50002V2.50002C0.833252 2.27085 0.914849 2.07467 1.07804 1.91148C1.24124 1.74828 1.43742 1.66669 1.66659 1.66669H8.33325C8.56242 1.66669 8.7586 1.74828 8.92179 1.91148C9.08499 2.07467 9.16658 2.27085 9.16658 2.50002V7.50002C9.16658 7.72919 9.08499 7.92537 8.92179 8.08856C8.7586 8.25176 8.56242 8.33335 8.33325 8.33335H1.66659ZM4.99992 5.41669L8.33325 3.33335V2.50002L4.99992 4.58335L1.66659 2.50002V3.33335L4.99992 5.41669Z" fill="#1C1B1F"/>
</g>
</svg>
