<svg width="10" height="10" viewBox="0 0 10 10" fill="none" xmlns="http://www.w3.org/2000/svg">
<g clip-path="url(#clip0_41_138)">
<path d="M1.75417 4.02792e-06C1.52367 -0.000490313 1.29534 0.0445451 1.0823 0.132525C0.869247 0.220505 0.675673 0.349697 0.512685 0.512685C0.349697 0.675673 0.220505 0.869247 0.132525 1.0823C0.0445451 1.29534 -0.000490315 1.52367 4.0259e-06 1.75417V8.24584C-0.000490315 8.47634 0.0445451 8.70466 0.132525 8.91771C0.220505 9.13076 0.349697 9.32434 0.512685 9.48732C0.675673 9.65031 0.869247 9.7795 1.0823 9.86748C1.29534 9.95546 1.52367 10.0005 1.75417 10H8.24584C8.47634 10.0005 8.70466 9.95546 8.91771 9.86748C9.13076 9.7795 9.32434 9.65031 9.48732 9.48732C9.65031 9.32434 9.7795 9.13076 9.86748 8.91771C9.95546 8.70466 10.0005 8.47634 10 8.24584V7.79042C9.94292 7.79584 9.88417 7.79875 9.82417 7.79875C8.75042 7.79875 8.14625 6.90459 8.12 5.78542C8.11847 5.687 8.12153 5.58856 8.12917 5.49042C8.16792 4.99625 8.32709 4.55667 8.58959 4.23125C8.74534 4.03563 8.94429 3.87875 9.17084 3.77292C9.36584 3.67417 9.64042 3.62 9.86417 3.62H9.87375C9.91584 3.62 9.95792 3.62167 10 3.62417V1.75459C10.0006 1.52405 9.95556 1.29568 9.8676 1.08258C9.77965 0.869488 9.65046 0.675864 9.48747 0.512832C9.32448 0.3498 9.13088 0.220571 8.91781 0.132565C8.70473 0.0445586 8.47637 -0.000490512 8.24584 4.02792e-06H1.75417ZM1.83667 2.32625H3.57209L5.06709 5.84084L6.56292 2.32625H8.17292V2.38709L8.165 2.38875C7.87125 2.45542 7.72209 2.55417 7.72209 2.91125H7.72084L7.72209 7.19209C7.74709 7.47375 7.89875 7.56084 8.165 7.62125L8.17334 7.62292V7.68334H6.12209V7.62292L6.13 7.62084C6.39625 7.56084 6.54417 7.47375 6.56917 7.19167V3.02792L4.59209 7.67375H4.48334L2.5625 3.15375V7.08917C2.5625 7.44625 2.71167 7.545 3.00542 7.61125L3.01375 7.61292V7.67417H1.83542V7.61292L1.84334 7.61125C2.13709 7.54459 2.28709 7.44584 2.28709 7.08917V2.91125C2.28709 2.55417 2.13792 2.45542 1.84375 2.38875L1.83625 2.38709L1.83667 2.32625ZM9.8575 3.85459C9.405 3.86417 9.13542 4.40584 9.10209 5.15625H10V3.87417C9.95351 3.8617 9.90564 3.85512 9.8575 3.85459ZM9.08167 5.36792C9.04 6.09959 9.44 6.7175 10 6.88209V5.36792H9.08167Z" fill="black"/>
</g>
<defs>
<clipPath id="clip0_41_138">
<rect width="10" height="10" fill="white"/>
</clipPath>
</defs>
</svg>
