<svg width="10" height="10" viewBox="0 0 10 10" fill="none" xmlns="http://www.w3.org/2000/svg">
<mask id="mask0_41_30" style="mask-type:alpha" maskUnits="userSpaceOnUse" x="0" y="0" width="10" height="10">
<rect width="10" height="10" fill="#D9D9D9"/>
</mask>
<g mask="url(#mask0_41_30)">
<path d="M4.99992 9.16665C4.43047 9.16665 3.89228 9.05727 3.38534 8.83852C2.87839 8.61977 2.43568 8.32116 2.05721 7.94269C1.67874 7.56422 1.38013 7.12151 1.16138 6.61456C0.942627 6.10762 0.833252 5.56942 0.833252 4.99998C0.833252 4.42359 0.942627 3.88366 1.16138 3.38019C1.38013 2.87672 1.67874 2.43574 2.05721 2.05727C2.43568 1.6788 2.87839 1.38019 3.38534 1.16144C3.89228 0.942688 4.43047 0.833313 4.99992 0.833313C5.57631 0.833313 6.11624 0.942688 6.61971 1.16144C7.12318 1.38019 7.56415 1.6788 7.94263 2.05727C8.3211 2.43574 8.61971 2.87672 8.83846 3.38019C9.05721 3.88366 9.16658 4.42359 9.16658 4.99998C9.16658 5.56942 9.05721 6.10762 8.83846 6.61456C8.61971 7.12151 8.3211 7.56422 7.94263 7.94269C7.56415 8.32116 7.12318 8.61977 6.61971 8.83852C6.11624 9.05727 5.57631 9.16665 4.99992 9.16665ZM4.99992 8.31248C5.18047 8.06248 5.33672 7.80206 5.46867 7.53123C5.60061 7.2604 5.70825 6.9722 5.79159 6.66665H4.20825C4.29159 6.9722 4.39922 7.2604 4.53117 7.53123C4.66311 7.80206 4.81936 8.06248 4.99992 8.31248ZM3.91659 8.14581C3.79159 7.91665 3.68221 7.6788 3.58846 7.43227C3.49471 7.18574 3.41659 6.93054 3.35409 6.66665H2.12492C2.32631 7.01387 2.57804 7.31595 2.88013 7.5729C3.18221 7.82984 3.5277 8.02081 3.91659 8.14581ZM6.08325 8.14581C6.47214 8.02081 6.81763 7.82984 7.11971 7.5729C7.42179 7.31595 7.67353 7.01387 7.87492 6.66665H6.64575C6.58325 6.93054 6.50513 7.18574 6.41138 7.43227C6.31763 7.6788 6.20825 7.91665 6.08325 8.14581ZM1.77075 5.83331H3.18742C3.16659 5.69442 3.15096 5.55727 3.14054 5.42185C3.13013 5.28644 3.12492 5.14581 3.12492 4.99998C3.12492 4.85415 3.13013 4.71352 3.14054 4.5781C3.15096 4.44269 3.16659 4.30554 3.18742 4.16665H1.77075C1.73603 4.30554 1.70999 4.44269 1.69263 4.5781C1.67527 4.71352 1.66659 4.85415 1.66659 4.99998C1.66659 5.14581 1.67527 5.28644 1.69263 5.42185C1.70999 5.55727 1.73603 5.69442 1.77075 5.83331ZM4.02075 5.83331H5.97909C5.99992 5.69442 6.01554 5.55727 6.02596 5.42185C6.03638 5.28644 6.04158 5.14581 6.04158 4.99998C6.04158 4.85415 6.03638 4.71352 6.02596 4.5781C6.01554 4.44269 5.99992 4.30554 5.97909 4.16665H4.02075C3.99992 4.30554 3.98429 4.44269 3.97388 4.5781C3.96346 4.71352 3.95825 4.85415 3.95825 4.99998C3.95825 5.14581 3.96346 5.28644 3.97388 5.42185C3.98429 5.55727 3.99992 5.69442 4.02075 5.83331ZM6.81242 5.83331H8.22908C8.26381 5.69442 8.28985 5.55727 8.30721 5.42185C8.32457 5.28644 8.33325 5.14581 8.33325 4.99998C8.33325 4.85415 8.32457 4.71352 8.30721 4.5781C8.28985 4.44269 8.26381 4.30554 8.22908 4.16665H6.81242C6.83325 4.30554 6.84888 4.44269 6.85929 4.5781C6.86971 4.71352 6.87492 4.85415 6.87492 4.99998C6.87492 5.14581 6.86971 5.28644 6.85929 5.42185C6.84888 5.55727 6.83325 5.69442 6.81242 5.83331ZM6.64575 3.33331H7.87492C7.67353 2.98609 7.42179 2.68401 7.11971 2.42706C6.81763 2.17012 6.47214 1.97915 6.08325 1.85415C6.20825 2.08331 6.31763 2.32116 6.41138 2.56769C6.50513 2.81422 6.58325 3.06942 6.64575 3.33331ZM4.20825 3.33331H5.79159C5.70825 3.02776 5.60061 2.73956 5.46867 2.46873C5.33672 2.1979 5.18047 1.93748 4.99992 1.68748C4.81936 1.93748 4.66311 2.1979 4.53117 2.46873C4.39922 2.73956 4.29159 3.02776 4.20825 3.33331ZM2.12492 3.33331H3.35409C3.41659 3.06942 3.49471 2.81422 3.58846 2.56769C3.68221 2.32116 3.79159 2.08331 3.91659 1.85415C3.5277 1.97915 3.18221 2.17012 2.88013 2.42706C2.57804 2.68401 2.32631 2.98609 2.12492 3.33331Z" fill="#1C1B1F"/>
</g>
</svg>
